<?xml version="1.0" encoding="utf-8"?>
<svg version="1.1" xmlns:xlink="http://www.w3.org/1999/xlink" width="145px" height="145px" xmlns="http://www.w3.org/2000/svg">
  <g transform="matrix(1 0 0 1 -1013 -2360 )">
    <path d="M 1085.5 2360.5  C 1125.82 2360.5  1157.5 2392.18  1157.5 2432.5  C 1157.5 2472.82  1125.82 2504.5  1085.5 2504.5  C 1045.18 2504.5  1013.5 2472.82  1013.5 2432.5  C 1013.5 2392.18  1045.18 2360.5  1085.5 2360.5  Z " fill-rule="nonzero" fill="#ffffff" stroke="none" />
    <path d="M 1085.5 2360.5  C 1125.82 2360.5  1157.5 2392.18  1157.5 2432.5  C 1157.5 2472.82  1125.82 2504.5  1085.5 2504.5  C 1045.18 2504.5  1013.5 2472.82  1013.5 2432.5  C 1013.5 2392.18  1045.18 2360.5  1085.5 2360.5  Z " stroke-width="1" stroke-dasharray="17,8" stroke="#063e3e" fill="none" stroke-dashoffset="0.5" />
  </g>
</svg>