<?xml version="1.0" encoding="utf-8"?>
<svg version="1.1" xmlns:xlink="http://www.w3.org/1999/xlink" width="14px" height="14px" xmlns="http://www.w3.org/2000/svg">
  <g transform="matrix(1 0 0 1 -105 -2575 )">
    <path d="M 8.28985507246377 6.67735470941884  C 8.38647342995169 6.77087508350033  8.43478260869565 6.87842351369405  8.43478260869565 7  C 8.43478260869565 7.12157648630594  8.38647342995169 7.22912491649967  8.28985507246377 7.32264529058116  L 1.53623188405797 13.8597194388778  C 1.43961352657005 13.9532398129593  1.32850241545894 14  1.20289855072464 14  C 1.07729468599034 14  0.966183574879227 13.9532398129593  0.869565217391304 13.8597194388778  L 0.144927536231884 13.1583166332665  C 0.0483091787439614 13.064796259185  0 12.9572478289913  0 12.8356713426854  C 0 12.7140948563794  0.0483091787439614 12.6065464261857  0.144927536231884 12.5130260521042  L 5.84057971014493 7  L 0.144927536231884 1.48697394789579  C 0.0483091787439614 1.39345357381429  0 1.28590514362057  0 1.16432865731463  C 0 1.04275217100868  0.0483091787439614 0.935203740814962  0.144927536231884 0.841683366733466  L 0.869565217391304 0.140280561122245  C 0.966183574879227 0.0467601870407477  1.07729468599034 0  1.20289855072464 0  C 1.32850241545894 0  1.43961352657005 0.0467601870407477  1.53623188405797 0.140280561122245  L 8.28985507246377 6.67735470941884  Z M 13.8550724637681 6.67735470941884  C 13.951690821256 6.77087508350033  14 6.87842351369405  14 7  C 14 7.12157648630594  13.951690821256 7.22912491649967  13.8550724637681 7.32264529058116  L 7.10144927536232 13.8597194388778  C 7.0048309178744 13.9532398129593  6.89371980676328 14  6.76811594202899 14  C 6.64251207729469 14  6.53140096618358 13.9532398129593  6.43478260869565 13.8597194388778  L 5.71014492753623 13.1583166332665  C 5.61352657004831 13.064796259185  5.56521739130435 12.9572478289913  5.56521739130435 12.8356713426854  C 5.56521739130435 12.7140948563794  5.61352657004831 12.6065464261857  5.71014492753623 12.5130260521042  L 11.4057971014493 7  L 5.71014492753623 1.48697394789579  C 5.61352657004831 1.39345357381429  5.56521739130435 1.28590514362057  5.56521739130435 1.16432865731463  C 5.56521739130435 1.04275217100868  5.61352657004831 0.935203740814962  5.71014492753623 0.841683366733466  L 6.43478260869565 0.140280561122245  C 6.53140096618358 0.0467601870407477  6.64251207729469 0  6.76811594202899 0  C 6.89371980676328 0  7.0048309178744 0.0467601870407477  7.10144927536232 0.140280561122245  L 13.8550724637681 6.67735470941884  Z " fill-rule="nonzero" fill="#646363" stroke="none" transform="matrix(1 0 0 1 105 2575 )" />
  </g>
</svg>