<?xml version="1.0" encoding="utf-8"?>
<svg version="1.1" xmlns:xlink="http://www.w3.org/1999/xlink" width="61px" height="61px" xmlns="http://www.w3.org/2000/svg">
  <g transform="matrix(1 0 0 1 -657 -2402 )">
    <path d="M 58.9471153846154 21.8708254568368  C 60.3157051282051 22.1014492753623  61 22.6908212560386  61 23.6389413988658  C 61 24.2026885108171  60.6822916666667 24.8176853602184  60.046875 25.4839319470699  L 46.7397836538462 39.0907372400756  L 49.8924278846154 58.3093887838689  C 49.9168669871795 58.4887628649443  49.9290865384615 58.7450115521949  49.9290865384615 59.0781348456207  C 49.9290865384615 59.6162570888469  49.80078125 60.0710985087167  49.5441706730769 60.44265910523  C 49.2875600961538 60.8142197017433  48.9148637820513 61  48.4260817307692 61  C 47.9617387820513 61  47.4729567307692 60.8462507876497  46.9597355769231 60.538752362949  L 30.5 51.4675488342785  L 14.0402644230769 60.538752362949  C 13.5026041666667 60.8462507876497  13.0138221153846 61  12.5739182692308 61  C 12.0606971153846 61  11.67578125 60.8142197017433  11.4191706730769 60.44265910523  C 11.1625600961538 60.0710985087167  11.0342548076923 59.6162570888469  11.0342548076923 59.0781348456207  C 11.0342548076923 58.9243856332703  11.0586939102564 58.6681369460197  11.1075721153846 58.3093887838689  L 14.2602163461538 39.0907372400756  L 0.916466346153846 25.4839319470699  C 0.305488782051282 24.7920604914934  0 24.177063642092  0 23.6389413988658  C 0 22.6908212560386  0.684294871794872 22.1014492753623  2.05288461538462 21.8708254568368  L 20.4555288461538 19.064902331443  L 28.7037259615385 1.57592942659105  C 29.1680689102564 0.525309808863681  29.7668269230769 0  30.5 0  C 31.2331730769231 0  31.8319310897436 0.525309808863681  32.2962740384615 1.57592942659105  L 40.5444711538462 19.064902331443  L 58.9471153846154 21.8708254568368  Z " fill-rule="nonzero" fill="#063e3e" stroke="none" transform="matrix(1 0 0 1 657 2402 )" />
  </g>
</svg>