<?xml version="1.0" encoding="utf-8"?>
<svg version="1.1" xmlns:xlink="http://www.w3.org/1999/xlink" width="61px" height="61px" xmlns="http://www.w3.org/2000/svg">
  <g transform="matrix(1 0 0 1 -257 -2402 )">
    <path d="M 31.7708333333333 35.3053385416667  L 46.9678819444444 28.1171875  L 47.4444444444444 40.6666666666667  C 47.5150462962963 42.4934895833333  46.7913773148148 44.1879340277778  45.2734375 45.75  C 43.7554976851852 47.3120659722222  41.681568287037 48.5498046875  39.0516493055556 49.4632161458333  C 36.4217303240741 50.3766276041667  33.5711805555556 50.8333333333333  30.5 50.8333333333333  C 27.4288194444444 50.8333333333333  24.5782696759259 50.3766276041667  21.9483506944444 49.4632161458333  C 19.318431712963 48.5498046875  17.2445023148148 47.3120659722222  15.7265625 45.75  C 14.2086226851852 44.1879340277778  13.4849537037037 42.4934895833333  13.5555555555556 40.6666666666667  L 14.0321180555556 28.1171875  L 29.2291666666667 35.3053385416667  C 29.6174768518519 35.4906684027778  30.041087962963 35.5833333333333  30.5 35.5833333333333  C 30.958912037037 35.5833333333333  31.3825231481482 35.4906684027778  31.7708333333333 35.3053385416667  Z M 60.4175347222222 14.0188802083333  C 60.8058449074074 14.2306857638889  61 14.6410590277778  61 15.25  C 61 15.8589409722222  60.8058449074074 16.2693142361111  60.4175347222222 16.4811197916667  L 30.7647569444444 30.4602864583333  C 30.6941550925926 30.4867621527778  30.6059027777778 30.5  30.5 30.5  C 30.3940972222222 30.5  30.3058449074074 30.4867621527778  30.2352430555556 30.4602864583333  L 12.9730902777778 22.279296875  C 12.2141203703704 23.1794704861111  11.5875289351852 24.6554904513889  11.0933159722222 26.7073567708333  C 10.5991030092593 28.7592230902778  10.2990451388889 31.1221788194444  10.1931423611111 33.7962239583333  C 11.3051215277778 34.7493489583333  11.8611111111111 36.1922743055556  11.8611111111111 38.125  C 11.8611111111111 39.9518229166667  11.3492476851852 41.3682725694444  10.3255208333333 42.3743489583333  L 11.8611111111111 59.5703125  C 11.896412037037 59.9409722222222  11.8258101851852 60.2719184027778  11.6493055555556 60.5631510416667  C 11.4904513888889 60.8543836805556  11.2786458333333 61  11.0138888888889 61  L 5.93055555555556 61  C 5.66579861111111 61  5.45399305555556 60.8543836805556  5.29513888888889 60.5631510416667  C 5.11863425925926 60.2719184027778  5.04803240740741 59.9409722222222  5.08333333333333 59.5703125  L 6.61892361111111 42.3743489583333  C 5.59519675925926 41.3682725694444  5.08333333333333 39.9518229166667  5.08333333333333 38.125  C 5.08333333333333 36.1922743055556  5.65697337962963 34.7228732638889  6.80425347222222 33.716796875  C 6.99840856481482 28.236328125  7.86328125 23.8678385416667  9.39887152777778 20.611328125  L 0.582465277777778 16.4811197916667  C 0.194155092592593 16.2693142361111  0 15.8589409722222  0 15.25  C 0 14.6410590277778  0.194155092592593 14.2306857638889  0.582465277777778 14.0188802083333  L 30.2352430555556 0.0397135416666644  C 30.3058449074074 0.0132378472222192  30.3940972222222 0  30.5 0  C 30.6059027777778 0  30.6941550925926 0.0132378472222192  30.7647569444444 0.0397135416666644  L 60.4175347222222 14.0188802083333  Z " fill-rule="nonzero" fill="#063e3e" stroke="none" transform="matrix(1 0 0 1 257 2402 )" />
  </g>
</svg>