<?xml version="1.0" encoding="utf-8"?>
<svg version="1.1" xmlns:xlink="http://www.w3.org/1999/xlink" width="40px" height="40px" xmlns="http://www.w3.org/2000/svg">
  <g transform="matrix(1 0 0 1 -580 -3457 )">
    <path d="M 30.5989583333333 15.390625  C 31.6927083333333 14.609375  32.6041666666667 13.6631944444444  33.3333333333333 12.5520833333333  C 32.3611111111111 12.9861111111111  31.3107638888889 13.28125  30.1822916666667 13.4375  C 31.3628472222222 12.7430555555556  32.1701388888889 11.7274305555556  32.6041666666667 10.390625  C 31.4756944444444 11.0503472222222  30.3125 11.4930555555556  29.1145833333333 11.71875  C 28.0555555555556 10.5729166666667  26.7274305555556 10  25.1302083333333 10  C 23.6197916666667 10  22.3307291666667 10.5338541666667  21.2630208333333 11.6015625  C 20.1953125 12.6692708333333  19.6614583333333 13.9583333333333  19.6614583333333 15.46875  C 19.6614583333333 15.9722222222222  19.7048611111111 16.3888888888889  19.7916666666667 16.71875  C 17.5520833333333 16.5972222222222  15.4513888888889 16.0329861111111  13.4895833333333 15.0260416666667  C 11.5277777777778 14.0190972222222  9.86111111111111 12.6736111111111  8.48958333333333 10.9895833333333  C 7.98611111111111 11.8576388888889  7.734375 12.7777777777778  7.734375 13.75  C 7.734375 15.7291666666667  8.52430555555556 17.2482638888889  10.1041666666667 18.3072916666667  C 9.28819444444444 18.2899305555556  8.42013888888889 18.0642361111111  7.5 17.6302083333333  L 7.5 17.6822916666667  C 7.5 18.984375  7.93402777777778 20.1432291666667  8.80208333333333 21.1588541666667  C 9.67013888888889 22.1744791666667  10.7378472222222 22.8038194444444  12.0052083333333 23.046875  C 11.5017361111111 23.1857638888889  11.0590277777778 23.2552083333333  10.6770833333333 23.2552083333333  C 10.4513888888889 23.2552083333333  10.1128472222222 23.2204861111111  9.66145833333333 23.1510416666667  C 10.0260416666667 24.2447916666667  10.6727430555556 25.1475694444444  11.6015625 25.859375  C 12.5303819444444 26.5711805555556  13.5850694444444 26.9357638888889  14.765625 26.953125  C 12.7517361111111 28.515625  10.4861111111111 29.296875  7.96875 29.296875  C 7.51736111111111 29.296875  7.08333333333333 29.2708333333333  6.66666666666667 29.21875  C 9.23611111111111 30.8506944444444  12.03125 31.6666666666667  15.0520833333333 31.6666666666667  C 16.9965277777778 31.6666666666667  18.8194444444444 31.3585069444444  20.5208333333333 30.7421875  C 22.2222222222222 30.1258680555556  23.6805555555556 29.3012152777778  24.8958333333333 28.2682291666667  C 26.1111111111111 27.2352430555556  27.1571180555556 26.0460069444444  28.0338541666667 24.7005208333333  C 28.9105902777778 23.3550347222222  29.5616319444444 21.9487847222222  29.9869791666667 20.4817708333333  C 30.4123263888889 19.0147569444444  30.625 17.5520833333333  30.625 16.09375  C 30.625 15.78125  30.6163194444444 15.546875  30.5989583333333 15.390625  Z M 37.7994791666667 2.20052083333333  C 39.2664930555556 3.66753472222222  40 5.43402777777777  40 7.5  L 40 32.5  C 40 34.5659722222222  39.2664930555556 36.3324652777778  37.7994791666667 37.7994791666667  C 36.3324652777778 39.2664930555556  34.5659722222222 40  32.5 40  L 7.5 40  C 5.43402777777778 40  3.66753472222222 39.2664930555556  2.20052083333333 37.7994791666667  C 0.733506944444444 36.3324652777778  0 34.5659722222222  0 32.5  L 0 7.5  C 0 5.43402777777777  0.733506944444444 3.66753472222222  2.20052083333333 2.20052083333333  C 3.66753472222222 0.733506944444442  5.43402777777778 0  7.5 0  L 32.5 0  C 34.5659722222222 0  36.3324652777778 0.733506944444442  37.7994791666667 2.20052083333333  Z " fill-rule="nonzero" fill="#f9f9f9" stroke="none" transform="matrix(1 0 0 1 580 3457 )" />
  </g>
</svg>