<?xml version="1.0" encoding="utf-8"?>
<svg version="1.1" xmlns:xlink="http://www.w3.org/1999/xlink" width="51px" height="61px" xmlns="http://www.w3.org/2000/svg">
  <g transform="matrix(1 0 0 1 -1060 -2402 )">
    <path d="M 16.8792613636364 12.5922475961538  C 17.1448863636364 12.873297275641  17.4708806818182 13.0138221153846  17.8572443181818 13.0138221153846  C 18.2436079545455 13.0138221153846  18.5756392045455 12.873297275641  18.8533380681818 12.5922475961538  C 19.1310369318182 12.3111979166667  19.2698863636364 11.9751602564102  19.2698863636364 11.5841346153846  C 19.2698863636364 11.193108974359  19.1310369318182 10.8570713141026  18.8533380681818 10.5760216346154  C 18.5756392045455 10.2949719551282  18.2436079545455 10.1544471153846  17.8572443181818 10.1544471153846  C 17.4708806818182 10.1544471153846  17.1448863636364 10.2949719551282  16.8792613636364 10.5760216346154  C 16.6136363636364 10.8570713141026  16.4808238636364 11.193108974359  16.4808238636364 11.5841346153846  C 16.4808238636364 11.9751602564102  16.6136363636364 12.3111979166667  16.8792613636364 12.5922475961538  Z M 32.1466619318182 12.5922475961538  C 32.4243607954545 12.873297275641  32.7563920454545 13.0138221153846  33.1427556818182 13.0138221153846  C 33.5291193181818 13.0138221153846  33.8551136363636 12.873297275641  34.1207386363636 12.5922475961538  C 34.3863636363636 12.3111979166667  34.5191761363636 11.9751602564102  34.5191761363636 11.5841346153846  C 34.5191761363636 11.193108974359  34.3863636363636 10.8570713141026  34.1207386363636 10.5760216346154  C 33.8551136363636 10.2949719551282  33.5291193181818 10.1544471153846  33.1427556818182 10.1544471153846  C 32.7563920454545 10.1544471153846  32.4243607954545 10.2949719551282  32.1466619318182 10.5760216346154  C 31.8689630681818 10.8570713141026  31.7301136363636 11.193108974359  31.7301136363636 11.5841346153846  C 31.7301136363636 11.9751602564102  31.8689630681818 12.3111979166667  32.1466619318182 12.5922475961538  Z M 1.08664772727273 20.8587740384615  C 1.81107954545455 20.1256009615385  2.69247159090909 19.7590144230769  3.73082386363636 19.7590144230769  C 4.74502840909091 19.7590144230769  5.61434659090909 20.1256009615385  6.33877840909091 20.8587740384615  C 7.06321022727273 21.5919471153846  7.42542613636364 22.4717548076923  8 23.4981971153846  L 8 39.2614182692308  C 7.42542613636364 40.3122996794872  7.06924715909091 41.2043269230769  6.35688920454546 41.9375  C 5.64453125 42.6706730769231  4.76917613636364 43.0372596153846  3.73082386363636 43.0372596153846  C 2.69247159090909 43.0372596153846  1.81107954545455 42.6706730769231  1.08664772727273 41.9375  C 0.362215909090909 41.2043269230769  0 40.3122996794872  0 39.2614182692308  L 0 23.4981971153846  C 0 22.4717548076923  0.362215909090909 21.5919471153846  1.08664772727273 20.8587740384615  Z M 9 21  L 42 21  L 42 44.8701923076923  C 42.1257102272727 45.994391025641  41.7393465909091 46.947516025641  40.9666193181818 47.7295673076923  C 40.1938920454545 48.5116185897436  39.2642045454545 48.9026442307692  38.1775568181818 48.9026442307692  L 35.4609375 48.9026442307692  L 35.4609375 57.2241586538462  C 35.4609375 58.2750400641026  35.0987215909091 59.1670673076923  34.3742897727273 59.9002403846154  C 33.6498579545455 60.6334134615385  32.7684659090909 61  31.7301136363636 61  C 30.6917613636364 61  29.8103693181818 60.6334134615385  29.0859375 59.9002403846154  C 28.3615056818182 59.1670673076923  27.9992897727273 58.2750400641026  27.9992897727273 57.2241586538462  L 27.9992897727273 48.9026442307692  L 23.0007102272727 48.9026442307692  L 23.0007102272727 57.2241586538462  C 23.0007102272727 58.2750400641026  22.6384943181818 59.1670673076923  21.9140625 59.9002403846154  C 21.1896306818182 60.6334134615385  20.3082386363636 61  19.2698863636364 61  C 18.2556818181818 61  17.3863636363636 60.6334134615385  16.6619318181818 59.9002403846154  C 15.9375 59.1670673076923  15.5752840909091 58.2750400641026  15.5752840909091 57.2241586538462  L 15.5390625 48.9026442307692  L 12.8586647727273 48.9026442307692  C 11.7478693181818 48.9026442307692  10.8061079545455 48.5116185897436  10.0333806818182 47.7295673076923  C 9.26065340909091 46.947516025641  8.87428977272727 45.994391025641  9 44.8701923076923  L 9 21  Z M 36.2940340909091 0.806490384615385  L 33.7223011363636 5.60877403846154  C 36.3061079545455 6.95292467948717  38.3707386363636 8.82862580128205  39.9161931818182 11.2358774038462  C 41.4616477272727 13.6431290064102  42.234375 16.2764423076923  42.234375 20  L 8.72940340909091 20  C 8.72940340909091 16.2764423076923  9.50213068181818 13.6431290064102  11.0475852272727 11.2358774038462  C 12.5930397727273 8.82862580128205  14.6697443181818 6.95292467948717  17.2776988636364 5.60877403846154  L 14.7059659090909 0.806490384615385  C 14.5369318181818 0.48878205128205  14.5973011363636 0.244391025641018  14.8870738636364 0.0733173076923108  C 15.2009943181818 -0.0733173076923108  15.4424715909091 0  15.6115056818182 0.29326923076923  L 18.2194602272727 5.13221153846154  C 20.5134943181818 4.10576923076923  22.9403409090909 3.59254807692307  25.5 3.59254807692307  C 28.0596590909091 3.59254807692307  30.4865056818182 4.10576923076923  32.7805397727273 5.13221153846154  L 35.3884943181818 0.29326923076923  C 35.5575284090909 0  35.7990056818182 -0.0733173076923108  36.1129261363636 0.0733173076923108  C 36.4026988636364 0.244391025641018  36.4630681818182 0.48878205128205  36.2940340909091 0.806490384615385  Z M 49.9133522727273 20.8404447115385  C 50.6377840909091 21.5613982371795  51 22.4473157051282  51 23.4981971153846  L 51 39.2614182692308  C 51 40.3122996794872  50.6377840909091 41.2043269230769  49.9133522727273 41.9375  C 49.1889204545455 42.6706730769231  48.3075284090909 43.0372596153846  47.2691761363636 43.0372596153846  C 46.2549715909091 43.0372596153846  45.3856534090909 42.6706730769231  44.6612215909091 41.9375  C 43.9367897727273 41.2043269230769  43.5745738636364 40.3122996794872  43 39.2614182692308  L 43 23.4981971153846  C 43.5745738636364 22.4473157051282  43.9367897727273 21.5613982371795  44.6612215909091 20.8404447115385  C 45.3856534090909 20.1194911858974  46.2549715909091 19.7590144230769  47.2691761363636 19.7590144230769  C 48.3075284090909 19.7590144230769  49.1889204545455 20.1194911858974  49.9133522727273 20.8404447115385  Z " fill-rule="nonzero" fill="#063e3e" stroke="none" transform="matrix(1 0 0 1 1060 2402 )" />
  </g>
</svg>