<?xml version="1.0" encoding="utf-8"?>
<svg version="1.1" xmlns:xlink="http://www.w3.org/1999/xlink" width="61px" height="61px" xmlns="http://www.w3.org/2000/svg">
  <g transform="matrix(1 0 0 1 -649 -3214 )">
    <path d="M 56.9151785714286 12.6405335068315  C 59.6383928571429 16.5431576664498  61 20.7963565387118  61 25.4001301236174  C 61 30.0039037085231  59.6383928571429 34.2571025807851  56.9151785714286 38.1597267404034  C 54.1919642857143 42.0623509000217  50.4929315476191 45.1447625243982  45.8180803571429 47.4069616135329  C 41.1432291666667 49.6691607026675  36.0372023809524 50.8002602472349  30.5 50.8002602472349  C 28.9114583333333 50.8002602472349  27.2661830357143 50.6944263717198  25.5641741071429 50.4827586206897  C 21.0708705357143 55.1129906744741  15.8513764880952 58.314465408805  9.90569196428571 60.0871828236825  C 8.79371279761905 60.4576013879853  7.50018601190476 60.7486445456517  6.02511160714286 60.9603122966818  C 5.63932291666667 61.0132292344394  5.29324776785714 60.8941661244849  4.98688616071429 60.6031229668185  C 4.68052455357143 60.312079809152  4.4819568452381 59.9284320104099  4.39118303571429 59.4521795705921  L 4.39118303571429 59.4124918672739  C 4.32310267857143 59.3066579917588  4.31742931547619 59.1479071784862  4.37416294642857 58.9362394274561  C 4.43089657738095 58.7245716764259  4.45359002976191 58.5922793320321  4.44224330357143 58.5393623942746  C 4.43089657738095 58.486445456517  4.4819568452381 58.3607677293429  4.59542410714286 58.1623292127521  L 4.79966517857143 57.8051398828887  C 4.79966517857143 57.8051398828887  4.87909226190476 57.692691390154  5.03794642857143 57.4677944046845  C 5.1968005952381 57.2428974192149  5.28757440476191 57.1238343092605  5.31026785714286 57.1106050748211  C 5.46912202380952 56.8989373237909  5.82087053571429 56.4425287356322  6.36551339285714 55.7413793103448  C 6.91015625 55.0402298850575  7.30161830357143 54.5375189763609  7.53989955357143 54.233246584255  C 7.77818080357143 53.9289741921492  8.12992931547619 53.4064194317935  8.59514508928571 52.665582303188  C 9.06036086309524 51.9247451745825  9.42912946428571 51.2500542181739  9.70145089285714 50.6415094339623  C 9.97377232142857 50.0329646497506  10.2801339285714 49.2524398178269  10.6205357142857 48.2999349381913  C 10.9609375 47.3474300585556  11.2559523809524 46.3420082411624  11.5055803571429 45.2836694860117  C 7.94270833333333 42.9288657558013  5.13439360119048 40.0184341791368  3.08063616071429 36.5523747560182  C 1.0268787202381 33.0863153328996  0 29.3689004554327  0 25.4001301236174  C 0 21.9605291693776  0.805617559523809 18.6730644111906  2.41685267857143 15.5377358490566  C 4.02808779761905 12.4024072869226  6.1953125 9.69702884406853  8.91852678571429 7.42160052049447  C 11.6417410714286 5.1461721969204  14.8869047619048 3.34038169594447  18.6540178571429 2.00422901756669  C 22.421130952381 0.668076339188892  26.3697916666667 0  30.5 0  C 36.0372023809524 0  41.1432291666667 1.13109954456734  45.8180803571429 3.39329863370202  C 50.4929315476191 5.6554977228367  54.1919642857143 8.73790934721318  56.9151785714286 12.6405335068315  Z " fill-rule="nonzero" fill="#f9f9f9" stroke="none" transform="matrix(1 0 0 1 649 3214 )" />
  </g>
</svg>