<?xml version="1.0" encoding="utf-8"?>
<svg version="1.1" xmlns:xlink="http://www.w3.org/1999/xlink" width="80px" height="80px" xmlns="http://www.w3.org/2000/svg">
  <g transform="matrix(1 0 0 1 -643 -170 )">
    <path d="M 60.6770833333333 37.1875  C 61.3368055555556 37.9791666666667  61.6666666666667 38.9166666666667  61.6666666666667 40  C 61.6666666666667 41.0833333333333  61.3368055555556 42.0208333333333  60.6770833333333 42.8125  L 32.34375 76.8125  C 31.6840277777778 77.6041666666667  30.9027777777778 78  30 78  C 29.0972222222222 78  28.3159722222222 77.6041666666667  27.65625 76.8125  C 26.9965277777778 76.0208333333333  26.6666666666667 75.0833333333333  27 74  L 27 56  L 3.33333333333333 56  C 2.43055555555556 56  1.64930555555556 55.6041666666667  0.989583333333333 54.8125  C 0.329861111111111 54.0208333333333  0 53.0833333333333  0 52  L 0 28  C 0 26.9166666666667  0.329861111111111 25.9791666666667  0.989583333333333 25.1875  C 1.64930555555556 24.3958333333333  2.43055555555556 24  3.33333333333333 24  L 27 24  L 27 6  C 26.6666666666667 4.91666666666665  26.9965277777778 3.97916666666665  27.65625 3.1875  C 28.3159722222222 2.39583333333333  29.0972222222222 2  30 2  C 30.9027777777778 2  31.6840277777778 2.39583333333333  32.34375 3.1875  L 60.6770833333333 37.1875  Z M 75.5989583333333 5.28125  C 78.5329861111111 8.80208333333333  80 13.0416666666667  80 18  L 80 62  C 80 66.9583333333333  78.5329861111111 71.1979166666667  75.5989583333333 74.71875  C 72.6649305555556 78.2395833333333  69.1319444444445 80  65 80  L 48.3333333333333 80  C 47.8819444444445 80  47.4913194444445 79.8020833333333  47.1614583333333 79.40625  C 46.8315972222222 79.0104166666667  46.6666666666667 78.5416666666667  46.6666666666667 78  C 46.6666666666667 77.8333333333333  46.6493055555556 77.4166666666667  46.6145833333333 76.75  C 46.5798611111111 76.0833333333333  46.5711805555556 75.53125  46.5885416666667 75.09375  C 46.6059027777778 74.65625  46.6579861111111 74.1666666666667  46.7447916666667 73.625  C 46.8315972222222 73.0833333333333  47.0052083333333 72.6770833333333  47.265625 72.40625  C 47.5260416666667 72.1354166666667  47.8819444444445 72  48.3333333333333 72  L 65 72  C 67.2916666666667 72  69.2534722222222 71.0208333333333  70.8854166666667 69.0625  C 72.5173611111111 67.1041666666667  73.3333333333333 64.75  73 62  L 73 18  C 73.3333333333333 15.25  72.5173611111111 12.8958333333333  70.8854166666667 10.9375  C 69.2534722222222 8.97916666666665  67.2916666666667 8  65 8  L 50 8  L 49.4270833333333 8  L 48.75 8  C 48.75 8  48.5503472222222 7.97916666666666  48.1510416666667 7.9375  C 47.7517361111111 7.89583333333333  47.5520833333333 7.83333333333333  47.5520833333333 7.75  C 47.5520833333333 7.66666666666666  47.4131944444444 7.55208333333333  47.1354166666667 7.40625  C 46.8576388888889 7.26041666666665  46.7361111111111 7.07291666666666  46.7708333333333 6.84375  C 46.8055555555556 6.61458333333333  46.7708333333333 6.33333333333333  46.6666666666667 6  C 46.6666666666667 5.83333333333333  46.6493055555556 5.41666666666666  46.6145833333333 4.75  C 46.5798611111111 4.08333333333333  46.5711805555556 3.53125  46.5885416666667 3.09375  C 46.6059027777778 2.65625  46.6579861111111 2.16666666666666  46.7447916666667 1.625  C 46.8315972222222 1.08333333333333  47.0052083333333 0.67708333333333  47.265625 0.406250000000004  C 47.5260416666667 0.135416666666659  47.8819444444445 0  48.3333333333333 0  L 65 0  C 69.1319444444445 0  72.6649305555556 1.76041666666666  75.5989583333333 5.28125  Z " fill-rule="nonzero" fill="#063e3e" stroke="none" transform="matrix(1 0 0 1 643 170 )" />
  </g>
</svg>