<?xml version="1.0" encoding="utf-8"?>
<svg version="1.1" xmlns:xlink="http://www.w3.org/1999/xlink" width="40px" height="40px" xmlns="http://www.w3.org/2000/svg">
  <g transform="matrix(1 0 0 1 -745 -3457 )">
    <path d="M 6.171875 15.4166666666667  L 6.171875 33.4895833333333  L 12.1875 33.4895833333333  L 12.1875 15.4166666666667  L 6.171875 15.4166666666667  Z M 11.640625 12.0703125  C 12.265625 11.4713541666667  12.578125 10.7291666666667  12.578125 9.84375  C 12.5607638888889 8.94097222222222  12.2482638888889 8.19444444444444  11.640625 7.60416666666667  C 11.0329861111111 7.01388888888889  10.2256944444444 6.71875  9.21875 6.71875  C 8.21180555555556 6.71875  7.39149305555556 7.01388888888889  6.7578125 7.60416666666667  C 6.12413194444445 8.19444444444444  5.80729166666667 8.94097222222222  5.80729166666667 9.84375  C 5.80729166666667 10.7291666666667  6.11545138888889 11.4713541666667  6.73177083333333 12.0703125  C 7.34809027777778 12.6692708333333  8.15104166666667 12.96875  9.140625 12.96875  L 9.16666666666667 12.96875  C 10.1909722222222 12.96875  11.015625 12.6692708333333  11.640625 12.0703125  Z M 27.8125 23.828125  L 27.8125 33.4895833333333  L 33.828125 33.4895833333333  L 33.828125 23.125  C 33.828125 20.4513888888889  33.1944444444444 18.4288194444444  31.9270833333333 17.0572916666667  C 30.6597222222222 15.6857638888889  28.984375 15  26.9010416666667 15  C 24.5399305555556 15  22.7256944444444 16.015625  21.4583333333333 18.046875  L 21.5104166666667 18.046875  L 21.5104166666667 15.4166666666667  L 15.4947916666667 15.4166666666667  C 15.546875 16.5625  15.546875 22.5868055555556  15.4947916666667 33.4895833333333  L 21 33.4895833333333  L 21 23.3854166666667  C 21.5104166666667 22.7256944444444  21.5711805555556 22.2395833333333  21.6927083333333 21.9270833333333  C 21.953125 21.3194444444444  22.34375 20.8029513888889  22.8645833333333 20.3776041666667  C 23.3854166666667 19.9522569444444  24.0277777777778 19.7395833333333  24.7916666666667 19.7395833333333  C 26.8055555555556 19.7395833333333  27.8125 21.1024305555556  27.8125 23.828125  Z M 37.7994791666667 2.20052083333333  C 39.2664930555556 3.66753472222222  40 5.43402777777777  40 7.5  L 40 32.5  C 40 34.5659722222222  39.2664930555556 36.3324652777778  37.7994791666667 37.7994791666667  C 36.3324652777778 39.2664930555556  34.5659722222222 40  32.5 40  L 7.5 40  C 5.43402777777778 40  3.66753472222222 39.2664930555556  2.20052083333333 37.7994791666667  C 0.733506944444444 36.3324652777778  0 34.5659722222222  0 32.5  L 0 7.5  C 0 5.43402777777777  0.733506944444444 3.66753472222222  2.20052083333333 2.20052083333333  C 3.66753472222222 0.733506944444442  5.43402777777778 0  7.5 0  L 32.5 0  C 34.5659722222222 0  36.3324652777778 0.733506944444442  37.7994791666667 2.20052083333333  Z " fill-rule="nonzero" fill="#f9f9f9" stroke="none" transform="matrix(1 0 0 1 745 3457 )" />
  </g>
</svg>