<?xml version="1.0" encoding="utf-8"?>
<svg version="1.1" xmlns:xlink="http://www.w3.org/1999/xlink" width="40px" height="40px" xmlns="http://www.w3.org/2000/svg">
  <g transform="matrix(1 0 0 1 -635 -3457 )">
    <path d="M 16 11.3968253968254  L 16 27.3650793650794  L 26.6666666666667 19.4285714285714  L 16 11.3968253968254  Z M 6.02006688963211 0.571428571428569  C 9.75102192493497 0.19047619047619  14.4109996283909 0  20 0  C 22.4972129319955 0  24.908955778521 0.0476190476190475  27.2352285395764 0.142857142857142  C 29.5615013006317 0.238095238095237  31.2671869193608 0.338624338624336  32.3522853957637 0.444444444444443  L 33.9799331103679 0.571428571428569  C 33.9947974730583 0.571428571428569  34.1211445559272 0.587301587301585  34.3589743589744 0.619047619047617  C 34.5968041620216 0.650793650793653  34.7677443329617 0.682539682539685  34.8717948717949 0.714285714285716  C 34.975845410628 0.746031746031748  35.1505016722408 0.793650793650795  35.3957636566332 0.857142857142859  C 35.6410256410256 0.920634920634922  35.8528428093645 1.005291005291  36.0312151616499 1.11111111111111  C 36.2095875139353 1.21693121693121  36.4176885916016 1.35449735449735  36.6555183946488 1.52380952380952  C 36.893348197696 1.69312169312169  37.123745819398 1.8994708994709  37.3467112597547 2.14285714285714  C 37.5696767001115 2.38624338624338  37.785209959123 2.66666666666667  37.9933110367893 2.98412698412698  C 38.082497212932 3.11111111111111  38.197696023783 3.3068783068783  38.3389074693423 3.57142857142857  C 38.4801189149015 3.83597883597883  38.695652173913 4.45502645502645  38.9855072463768 5.42857142857143  C 39.2753623188406 6.4021164021164  39.472315124489 7.47089947089947  39.5763656633222 8.63492063492064  C 39.6952805648458 9.98941798941799  39.7881828316611 11.4338624338624  39.8550724637681 12.968253968254  C 39.9219620958751 14.5026455026455  39.9628390932739 15.7037037037037  39.9777034559643 16.5714285714286  L 39.9777034559643 17.8412698412698  L 39.9777034559643 22.1587301587302  C 39.9925678186548 25.2275132275132  39.8587885544407 28.2962962962963  39.5763656633222 31.3650793650794  C 39.472315124489 32.5291005291005  39.2865105908584 33.5820105820106  39.0189520624303 34.5238095238095  C 38.7513935340022 35.4656084656085  38.513563730955 36.1164021164021  38.3054626532887 36.4761904761905  L 37.9933110367893 37.015873015873  C 37.785209959123 37.3333333333333  37.5696767001115 37.6137566137566  37.3467112597547 37.8571428571429  C 37.123745819398 38.1005291005291  36.893348197696 38.3015873015873  36.6555183946488 38.4603174603175  C 36.4176885916016 38.6190476190476  36.2095875139353 38.7513227513228  36.0312151616499 38.8571428571429  C 35.8528428093645 38.962962962963  35.6410256410256 39.047619047619  35.3957636566332 39.1111111111111  C 35.1505016722408 39.1746031746032  34.9721293199554 39.2222222222222  34.860646599777 39.2539682539683  C 34.7491638795987 39.2857142857143  34.5782237086585 39.3174603174603  34.3478260869565 39.3492063492063  C 34.1174284652546 39.3809523809524  33.9947974730583 39.3968253968254  33.9799331103679 39.3968253968254  C 30.248978075065 39.7989417989418  25.5890003716091 40  20 40  C 16.9230769230769 39.957671957672  14.2512077294686 39.8888888888889  11.984392419175 39.7936507936508  C 9.71757710888146 39.6984126984127  8.22742474916388 39.6190476190476  7.5139353400223 39.5555555555556  L 6.42140468227425 39.4285714285714  L 5.61872909698997 39.3015873015873  C 5.08361204013378 39.1957671957672  4.67855815681903 39.0899470899471  4.40356744704571 38.984126984127  C 4.12857673727239 38.8783068783069  3.74953548866592 38.6560846560847  3.26644370122631 38.3174603174603  C 2.7833519137867 37.978835978836  2.36343366778149 37.5449735449735  2.0066889632107 37.015873015873  C 1.917502787068 36.8888888888889  1.80230397621702 36.6931216931217  1.66109253065775 36.4285714285714  C 1.51988108509848 36.1640211640212  1.30434782608696 35.5449735449735  1.01449275362319 34.5714285714286  C 0.72463768115942 33.5978835978836  0.527684875510962 32.5291005291005  0.423634336677815 31.3650793650794  C 0.304719435154218 30.010582010582  0.211817168338908 28.5661375661376  0.144927536231884 27.031746031746  C 0.0780379041248607 25.4973544973545  0.0371609067261241 24.2962962962963  0.0222965440356745 23.4285714285714  L 0.0222965440356745 22.1587301587302  L 0.0222965440356745 17.8412698412698  C 0.00743218134522482 14.7724867724868  0.141211445559272 11.7037037037037  0.423634336677815 8.63492063492064  C 0.527684875510962 7.47089947089947  0.713489409141583 6.41798941798941  0.981047937569677 5.47619047619047  C 1.24860646599777 4.53439153439153  1.48643626904496 3.88359788359788  1.69453734671126 3.52380952380952  L 2.0066889632107 2.98412698412698  C 2.214790040877 2.66666666666667  2.43032329988852 2.38624338624338  2.65328874024526 2.14285714285714  C 2.87625418060201 1.8994708994709  3.10665180230398 1.69312169312169  3.34448160535117 1.52380952380952  C 3.58231140839837 1.35449735449735  3.79041248606466 1.21693121693121  3.96878483835006 1.11111111111111  C 4.14715719063545 1.005291005291  4.35897435897436 0.920634920634922  4.60423634336678 0.857142857142859  C 4.8494983277592 0.793650793650795  5.02415458937198 0.746031746031748  5.12820512820513 0.714285714285716  C 5.23225566703828 0.682539682539685  5.40319583797845 0.650793650793653  5.64102564102564 0.619047619047617  C 5.87885544407284 0.587301587301585  6.00520252694166 0.571428571428569  6.02006688963211 0.571428571428569  Z " fill-rule="nonzero" fill="#f9f9f9" stroke="none" transform="matrix(1 0 0 1 635 3457 )" />
  </g>
</svg>